<svg width="337" height="228" viewBox="0 0 337 228" fill="none" xmlns="http://www.w3.org/2000/svg">
<g clip-path="url(#clip0_1417_10)">
<rect width="337" height="228" fill="black"/>
<path d="M-20.8035 127.5L16 64.4956L52.8035 127.5H-20.8035Z" stroke="#1D1D1D" stroke-width="0.5"/>
<path d="M286.725 183.005L324.738 204.36L285.498 223.367L286.725 183.005Z" stroke="#1D1D1D" stroke-width="0.5"/>
<path d="M82.1965 237.5L119 174.496L155.804 237.5H82.1965Z" stroke="#274600" stroke-width="0.5"/>
<path d="M100.795 125L119 92.0343L137.205 125H100.795Z" stroke="#1D1D1D"/>
<path d="M190.371 221.25L209 187.517L227.629 221.25H190.371Z" stroke="#1D1D1D" stroke-width="0.5"/>
<path d="M344.789 144.667L305.622 119.779L344.529 94.4877L344.789 144.667Z" stroke="#274600" stroke-width="0.5"/>
<path d="M246.953 171.181L183.281 135.545L245.596 97.5862L246.953 171.181Z" stroke="#274600" stroke-width="0.5"/>
<path d="M300.333 54.5359L337.512 -8.24741L373.938 54.9757L300.333 54.5359Z" stroke="#1D1D1D" stroke-width="0.5"/>
</g>
<defs>
<clipPath id="clip0_1417_10">
<rect width="337" height="228" fill="white"/>
</clipPath>
</defs>
</svg>
