<svg width="337" height="214" viewBox="0 0 337 214" fill="none" xmlns="http://www.w3.org/2000/svg">
<g clip-path="url(#clip0_1417_10)">
<rect width="337" height="214" fill="black"/>
<path d="M254.339 32.7549C240.546 17.7262 256.706 4.65633 266.51 0H337V213.87H268.189C265.915 214.057 263.963 214.029 262.454 213.87H268.189C277.378 213.114 291.823 208.849 303.531 195.566C321.787 174.853 254.339 158.476 254.339 131.501C254.339 104.527 282.232 113.197 294.91 83.8139C307.587 54.4309 271.581 51.5407 254.339 32.7549Z" fill="#0A0A0A"/>
<path d="M266.51 0C256.706 4.65633 240.546 17.7262 254.339 32.7549C271.581 51.5407 307.587 54.4309 294.91 83.8139C282.232 113.197 254.339 104.527 254.339 131.501C254.339 158.476 321.787 174.853 303.531 195.566C288.926 212.136 270.061 214.673 262.454 213.87H337V0H266.51Z" stroke="black"/>
<path d="M276.251 0.5H336.5V213.37H283.205C290.843 211.396 300.42 206.474 308.492 195.869C310.521 193.203 311.384 190.571 311.296 187.956C311.208 185.35 310.178 182.816 308.524 180.334C305.229 175.387 299.359 170.507 293.077 165.491C292.419 164.965 291.756 164.438 291.09 163.908C285.375 159.363 279.475 154.671 274.834 149.639C269.651 144.021 266.111 138.058 266.111 131.501C266.111 124.838 267.597 120.429 269.955 117.091C272.324 113.736 275.602 111.418 279.3 108.978C279.66 108.74 280.024 108.501 280.391 108.261C287.553 103.563 295.852 98.12 301.118 83.9885C303.884 76.5655 304.016 70.7532 302.361 65.9197C300.709 61.0961 297.302 57.321 293.136 53.923C290.283 51.5958 287.037 49.4174 283.726 47.1959C282.218 46.1842 280.697 45.1636 279.193 44.1159C274.366 40.7518 269.679 37.0823 266.003 32.4443C263.078 28.7546 261.763 25.214 261.536 21.9172C261.309 18.6176 262.171 15.5225 263.665 12.7233C266.636 7.15919 272.083 2.81595 276.251 0.5Z" fill="#0F0F0F" stroke="#274600"/>
</g>
<defs>
<clipPath id="clip0_1417_10">
<rect width="337" height="214" fill="white"/>
</clipPath>
</defs>
</svg>
