<svg width="114" height="46" viewBox="0 0 114 46" fill="none" xmlns="http://www.w3.org/2000/svg">
<g clip-path="url(#clip0_1417_11)">
<path d="M26.5255 23.0938C26.267 23.0938 26.0454 23.0028 25.8607 22.821C25.6761 22.6392 25.5851 22.4176 25.588 22.1562C25.5851 21.9006 25.6761 21.6818 25.8607 21.5C26.0454 21.3182 26.267 21.2273 26.5255 21.2273C26.7755 21.2273 26.9928 21.3182 27.1775 21.5C27.365 21.6818 27.4601 21.9006 27.463 22.1562C27.4601 22.3295 27.4147 22.4872 27.3266 22.6293C27.2414 22.7713 27.1278 22.8849 26.9857 22.9702C26.8465 23.0526 26.6931 23.0938 26.5255 23.0938ZM26.5255 18.4233C26.267 18.4233 26.0454 18.3324 25.8607 18.1506C25.6761 17.9659 25.5851 17.7443 25.588 17.4858C25.5851 17.2301 25.6761 17.0114 25.8607 16.8295C26.0454 16.6449 26.267 16.5526 26.5255 16.5526C26.7755 16.5526 26.9928 16.6449 27.1775 16.8295C27.365 17.0114 27.4601 17.2301 27.463 17.4858C27.4601 17.6562 27.4147 17.8125 27.3266 17.9545C27.2414 18.0966 27.1278 18.2102 26.9857 18.2955C26.8465 18.3807 26.6931 18.4233 26.5255 18.4233ZM32.6182 13.8636L29.8057 24.3125H28.4548L31.2673 13.8636H32.6182ZM41.1409 17.2173H39.5472C39.5017 16.956 39.4179 16.7244 39.2957 16.5227C39.1736 16.3182 39.0216 16.1449 38.8398 16.0028C38.6579 15.8608 38.4506 15.7543 38.2176 15.6832C37.9875 15.6094 37.7389 15.5724 37.4719 15.5724C36.9974 15.5724 36.577 15.6918 36.2105 15.9304C35.844 16.1662 35.5571 16.5128 35.3497 16.9702C35.1423 17.4247 35.0386 17.9801 35.0386 18.6364C35.0386 19.304 35.1423 19.8665 35.3497 20.3239C35.5599 20.7784 35.8469 21.1222 36.2105 21.3551C36.577 21.5852 36.996 21.7003 37.4676 21.7003C37.729 21.7003 37.9733 21.6662 38.2006 21.598C38.4307 21.527 38.6366 21.4233 38.8185 21.2869C39.0031 21.1506 39.1579 20.983 39.2829 20.7841C39.4108 20.5852 39.4989 20.358 39.5472 20.1023L41.1409 20.1108C41.0812 20.5256 40.952 20.9148 40.7531 21.2784C40.5571 21.642 40.3 21.9631 39.9818 22.2415C39.6636 22.517 39.2915 22.733 38.8653 22.8892C38.4392 23.0426 37.9662 23.1193 37.4463 23.1193C36.6793 23.1193 35.9946 22.9418 35.3923 22.5866C34.7901 22.2315 34.3156 21.7188 33.969 21.0483C33.6224 20.3778 33.4491 19.5739 33.4491 18.6364C33.4491 17.696 33.6239 16.892 33.9733 16.2244C34.3227 15.554 34.7986 15.0412 35.4008 14.6861C36.0031 14.331 36.6849 14.1534 37.4463 14.1534C37.9321 14.1534 38.3838 14.2216 38.8014 14.358C39.219 14.4943 39.5912 14.6946 39.9179 14.9588C40.2446 15.2202 40.5131 15.5412 40.7233 15.9219C40.9364 16.2997 41.0756 16.7315 41.1409 17.2173ZM42.5887 23V14.2727H44.1697V21.6747H48.0134V23H42.5887ZM50.9665 14.2727V23H49.3856V14.2727H50.9665ZM60.1487 17.2173H58.555C58.5095 16.956 58.4257 16.7244 58.3035 16.5227C58.1814 16.3182 58.0294 16.1449 57.8476 16.0028C57.6658 15.8608 57.4584 15.7543 57.2254 15.6832C56.9953 15.6094 56.7467 15.5724 56.4797 15.5724C56.0052 15.5724 55.5848 15.6918 55.2183 15.9304C54.8518 16.1662 54.5649 16.5128 54.3575 16.9702C54.1501 17.4247 54.0464 17.9801 54.0464 18.6364C54.0464 19.304 54.1501 19.8665 54.3575 20.3239C54.5677 20.7784 54.8547 21.1222 55.2183 21.3551C55.5848 21.5852 56.0038 21.7003 56.4754 21.7003C56.7368 21.7003 56.9811 21.6662 57.2084 21.598C57.4385 21.527 57.6445 21.4233 57.8263 21.2869C58.0109 21.1506 58.1658 20.983 58.2908 20.7841C58.4186 20.5852 58.5067 20.358 58.555 20.1023L60.1487 20.1108C60.0891 20.5256 59.9598 20.9148 59.7609 21.2784C59.5649 21.642 59.3078 21.9631 58.9896 22.2415C58.6714 22.517 58.2993 22.733 57.8731 22.8892C57.447 23.0426 56.974 23.1193 56.4541 23.1193C55.6871 23.1193 55.0024 22.9418 54.4001 22.5866C53.7979 22.2315 53.3234 21.7188 52.9768 21.0483C52.6302 20.3778 52.457 19.5739 52.457 18.6364C52.457 17.696 52.6317 16.892 52.9811 16.2244C53.3305 15.554 53.8064 15.0412 54.4087 14.6861C55.0109 14.331 55.6927 14.1534 56.4541 14.1534C56.9399 14.1534 57.3916 14.2216 57.8092 14.358C58.2268 14.4943 58.599 14.6946 58.9257 14.9588C59.2524 15.2202 59.5209 15.5412 59.7311 15.9219C59.9442 16.2997 60.0834 16.7315 60.1487 17.2173ZM61.5965 23V14.2727H63.1775V18.2827H63.284L66.6888 14.2727H68.6192L65.2442 18.1889L68.6491 23H66.7485L64.1448 19.2585L63.1775 20.4006V23H61.5965ZM69.7176 23V14.2727H73.0585C73.6892 14.2727 74.2133 14.3722 74.631 14.571C75.0514 14.767 75.3653 15.0355 75.5727 15.3764C75.7829 15.7173 75.8881 16.1037 75.8881 16.5355C75.8881 16.8906 75.8199 17.1946 75.6835 17.4474C75.5472 17.6974 75.3639 17.9006 75.1338 18.0568C74.9037 18.2131 74.6466 18.3253 74.3625 18.3935V18.4787C74.6722 18.4957 74.969 18.5909 75.2531 18.7642C75.5401 18.9347 75.7744 19.1761 75.9562 19.4886C76.1381 19.8011 76.229 20.179 76.229 20.6222C76.229 21.0739 76.1196 21.4801 75.9008 21.8409C75.6821 22.1989 75.3526 22.4815 74.9122 22.6889C74.4719 22.8963 73.9179 23 73.2503 23H69.7176ZM71.2986 21.679H72.9989C73.5727 21.679 73.9861 21.5696 74.2389 21.3509C74.4946 21.1293 74.6224 20.8452 74.6224 20.4986C74.6224 20.2401 74.5585 20.0071 74.4307 19.7997C74.3028 19.5895 74.121 19.4247 73.8852 19.3054C73.6494 19.1832 73.3682 19.1222 73.0415 19.1222H71.2986V21.679ZM71.2986 17.9844H72.8625C73.1352 17.9844 73.381 17.9347 73.5997 17.8352C73.8185 17.733 73.9903 17.5895 74.1153 17.4048C74.2432 17.2173 74.3071 16.9957 74.3071 16.7401C74.3071 16.402 74.1878 16.1236 73.9491 15.9048C73.7133 15.6861 73.3625 15.5767 72.8966 15.5767H71.2986V17.9844ZM78.7251 23H77.0376L80.11 14.2727H82.0617L85.1384 23H83.4509L81.12 16.0625H81.0518L78.7251 23ZM78.7805 19.5781H83.3827V20.848H78.7805V19.5781ZM87.8689 14.2727V23H86.2879V14.2727H87.8689ZM89.1974 15.598V14.2727H96.1604V15.598H93.463V23H91.8948V15.598H89.1974Z" fill="white"/>
<path d="M97.9747 23.0938C97.7162 23.0938 97.4946 23.0028 97.3099 22.821C97.1253 22.6392 97.0344 22.4176 97.0372 22.1562C97.0344 21.9006 97.1253 21.6818 97.3099 21.5C97.4946 21.3182 97.7162 21.2273 97.9747 21.2273C98.2247 21.2273 98.442 21.3182 98.6267 21.5C98.8142 21.6818 98.9094 21.9006 98.9122 22.1562C98.9094 22.3295 98.8639 22.4872 98.7758 22.6293C98.6906 22.7713 98.577 22.8849 98.4349 22.9702C98.2957 23.0526 98.1423 23.0938 97.9747 23.0938Z" fill="#274600"/>
</g>
<defs>
<clipPath id="clip0_1417_11">
<rect width="114" height="46" fill="white"/>
</clipPath>
</defs>
</svg>
