<svg width="6119" height="5734" viewBox="0 0 6119 5734" fill="none" xmlns="http://www.w3.org/2000/svg">
<ellipse cx="3059.5" cy="2866.5" rx="2021.5" ry="1893.5" fill="black" stroke="white" stroke-width="100"/>
<mask id="path-2-outside-1_1512_3" maskUnits="userSpaceOnUse" x="1772" y="2079" width="2666" height="1344" fill="black">
<rect fill="white" x="1772" y="2079" width="2666" height="1344"/>
<path d="M1907.86 3251.72C1875.55 3251.72 1847.85 3240.36 1824.77 3217.63C1801.68 3194.9 1790.32 3167.2 1790.67 3134.53C1790.32 3102.57 1801.68 3075.23 1824.77 3052.5C1847.85 3029.77 1875.55 3018.41 1907.86 3018.41C1939.11 3018.41 1966.28 3029.77 1989.36 3052.5C2012.8 3075.23 2024.69 3102.57 2025.05 3134.53C2024.69 3156.19 2019.01 3175.9 2008 3193.66C1997.35 3211.41 1983.15 3225.62 1965.39 3236.27C1947.99 3246.57 1928.81 3251.72 1907.86 3251.72ZM1907.86 2667.91C1875.55 2667.91 1847.85 2656.55 1824.77 2633.82C1801.68 2610.74 1790.32 2583.04 1790.67 2550.72C1790.32 2518.76 1801.68 2491.42 1824.77 2468.69C1847.85 2445.61 1875.55 2434.07 1907.86 2434.07C1939.11 2434.07 1966.28 2445.61 1989.36 2468.69C2012.8 2491.42 2024.69 2518.76 2025.05 2550.72C2024.69 2572.03 2019.01 2591.56 2008 2609.32C1997.35 2627.07 1983.15 2641.28 1965.39 2651.93C1947.99 2662.59 1928.81 2667.91 1907.86 2667.91ZM2669.45 2097.95L2317.89 3404.06H2149.03L2500.59 2097.95H2669.45ZM3149.38 3255.98C3067.71 3255.98 2997.57 3238.05 2938.98 3202.18C2880.74 3166.31 2835.82 3116.78 2804.21 3053.57C2772.96 2990 2757.34 2916.85 2757.34 2834.11C2757.34 2751.01 2773.32 2677.68 2805.28 2614.11C2837.24 2550.19 2882.34 2500.48 2940.58 2464.96C2999.17 2429.1 3068.42 2411.16 3148.32 2411.16C3214.72 2411.16 3273.5 2423.42 3324.63 2447.92C3376.12 2472.07 3417.14 2506.34 3447.68 2550.72C3478.22 2594.76 3495.62 2646.25 3499.88 2705.2H3315.58C3308.12 2665.78 3290.36 2632.93 3262.31 2606.65C3234.61 2580.02 3197.5 2566.7 3150.98 2566.7C3111.56 2566.7 3076.94 2577.36 3047.11 2598.66C3017.28 2619.62 2994.02 2649.8 2977.33 2689.22C2961 2728.64 2952.83 2775.87 2952.83 2830.91C2952.83 2886.66 2961 2934.6 2977.33 2974.73C2993.67 3014.5 3016.57 3045.22 3046.05 3066.88C3075.88 3088.19 3110.85 3098.84 3150.98 3098.84C3179.39 3098.84 3204.78 3093.52 3227.15 3082.86C3249.88 3071.85 3268.88 3056.05 3284.15 3035.45C3299.42 3014.86 3309.9 2989.82 3315.58 2960.35H3499.88C3495.26 3018.23 3478.22 3069.55 3448.74 3114.29C3419.27 3158.68 3379.14 3193.48 3328.36 3218.69C3277.58 3243.55 3217.92 3255.98 3149.38 3255.98ZM3834 2983.25L3833.47 2750.48H3864.36L4158.39 2421.82H4383.71L4022.03 2824.52H3982.08L3834 2983.25ZM3658.22 3240V2149.09H3851.04V3240H3658.22ZM4171.71 3240L3905.38 2867.66L4035.35 2731.83L4402.36 3240H4171.71Z"/>
</mask>
<path d="M1824.77 3217.63L1812.14 3230.45L1812.14 3230.45L1824.77 3217.63ZM1790.67 3134.53L1808.67 3134.73L1808.68 3134.53L1808.67 3134.33L1790.67 3134.53ZM1824.77 3052.5L1837.39 3065.33L1837.39 3065.33L1824.77 3052.5ZM1989.36 3052.5L1976.73 3065.33L1976.78 3065.37L1976.83 3065.42L1989.36 3052.5ZM2025.05 3134.53L2043.05 3134.83L2043.05 3134.58L2043.05 3134.33L2025.05 3134.53ZM2008 3193.66L1992.71 3184.17L1992.64 3184.28L1992.57 3184.4L2008 3193.66ZM1965.39 3236.27L1974.56 3251.76L1974.61 3251.73L1974.65 3251.71L1965.39 3236.27ZM1824.77 2633.82L1812.04 2646.55L1812.09 2646.6L1812.14 2646.65L1824.77 2633.82ZM1790.67 2550.72L1808.67 2550.92L1808.68 2550.72L1808.67 2550.52L1790.67 2550.72ZM1824.77 2468.69L1837.39 2481.52L1837.44 2481.47L1837.49 2481.42L1824.77 2468.69ZM1989.36 2468.69L1976.63 2481.42L1976.73 2481.52L1976.83 2481.62L1989.36 2468.69ZM2025.05 2550.72L2043.05 2551.02L2043.05 2550.77L2043.05 2550.52L2025.05 2550.72ZM2008 2609.32L1992.71 2599.83L1992.64 2599.94L1992.57 2600.06L2008 2609.32ZM1965.39 2651.93L1956.13 2636.5L1956.06 2636.54L1955.99 2636.58L1965.39 2651.93ZM1907.86 3233.72C1880.29 3233.72 1857.12 3224.22 1837.39 3204.8L1812.14 3230.45C1838.58 3256.49 1870.81 3269.72 1907.86 3269.72V3233.72ZM1837.39 3204.8C1817.83 3185.54 1808.37 3162.56 1808.67 3134.73L1772.68 3134.34C1772.27 3171.85 1785.54 3204.26 1812.14 3230.45L1837.39 3204.8ZM1808.67 3134.33C1808.37 3107.34 1817.74 3084.67 1837.39 3065.33L1812.14 3039.67C1785.62 3065.78 1772.27 3097.81 1772.68 3134.73L1808.67 3134.33ZM1837.39 3065.33C1857.12 3045.91 1880.29 3036.41 1907.86 3036.41V3000.41C1870.81 3000.41 1838.58 3013.64 1812.14 3039.67L1837.39 3065.33ZM1907.86 3036.41C1934.2 3036.41 1956.88 3045.78 1976.73 3065.33L2001.99 3039.67C1975.68 3013.77 1944.03 3000.41 1907.86 3000.41V3036.41ZM1976.83 3065.42C1996.9 3084.89 2006.75 3107.69 2007.05 3134.73L2043.05 3134.33C2042.64 3097.46 2028.69 3065.57 2001.89 3039.58L1976.83 3065.42ZM2007.05 3134.24C2006.75 3152.77 2001.94 3169.29 1992.71 3184.17L2023.3 3203.14C2036.09 3182.52 2042.64 3159.61 2043.05 3134.83L2007.05 3134.24ZM1992.57 3184.4C1983.44 3199.62 1971.35 3211.7 1956.13 3220.84L1974.65 3251.71C1994.94 3239.53 2011.27 3223.21 2023.44 3202.92L1992.57 3184.4ZM1956.22 3220.78C1941.7 3229.38 1925.71 3233.72 1907.86 3233.72V3269.72C1931.92 3269.72 1954.28 3263.76 1974.56 3251.76L1956.22 3220.78ZM1907.86 2649.91C1880.29 2649.91 1857.12 2640.42 1837.39 2620.99L1812.14 2646.65C1838.58 2672.68 1870.81 2685.91 1907.86 2685.91V2649.91ZM1837.49 2621.09C1817.8 2601.4 1808.37 2578.34 1808.67 2550.92L1772.68 2550.53C1772.27 2587.74 1785.57 2620.08 1812.04 2646.55L1837.49 2621.09ZM1808.67 2550.52C1808.37 2523.53 1817.74 2500.87 1837.39 2481.52L1812.14 2455.87C1785.62 2481.97 1772.27 2514 1772.68 2550.92L1808.67 2550.52ZM1837.49 2481.42C1857.24 2461.68 1880.37 2452.07 1907.86 2452.07V2416.07C1870.72 2416.07 1838.46 2429.55 1812.04 2455.97L1837.49 2481.42ZM1907.86 2452.07C1934.11 2452.07 1956.76 2461.55 1976.63 2481.42L2002.09 2455.97C1975.8 2429.67 1944.12 2416.07 1907.86 2416.07V2452.07ZM1976.83 2481.62C1996.9 2501.08 2006.75 2523.88 2007.05 2550.92L2043.05 2550.52C2042.64 2513.65 2028.69 2481.76 2001.89 2455.77L1976.83 2481.62ZM2007.05 2550.42C2006.75 2568.55 2001.97 2584.9 1992.71 2599.83L2023.3 2618.8C2036.06 2598.23 2042.64 2575.51 2043.05 2551.02L2007.05 2550.42ZM1992.57 2600.06C1983.44 2615.28 1971.35 2627.36 1956.13 2636.5L1974.65 2667.37C1994.94 2655.19 2011.27 2638.87 2023.44 2618.58L1992.57 2600.06ZM1955.99 2636.58C1941.5 2645.45 1925.59 2649.91 1907.86 2649.91V2685.91C1932.04 2685.91 1954.48 2679.72 1974.79 2667.28L1955.99 2636.58ZM2669.45 2097.95L2686.83 2102.63L2692.93 2079.95H2669.45V2097.95ZM2317.89 3404.06V3422.06H2331.68L2335.27 3408.74L2317.89 3404.06ZM2149.03 3404.06L2131.65 3399.38L2125.54 3422.06H2149.03V3404.06ZM2500.59 2097.95V2079.95H2486.8L2483.21 2093.28L2500.59 2097.95ZM2652.07 2093.28L2300.5 3399.38L2335.27 3408.74L2686.83 2102.63L2652.07 2093.28ZM2317.89 3386.06H2149.03V3422.06H2317.89V3386.06ZM2166.41 3408.74L2517.97 2102.63L2483.21 2093.28L2131.65 3399.38L2166.41 3408.74ZM2500.59 2115.95H2669.45V2079.95H2500.59V2115.95ZM2938.98 3202.18L2929.54 3217.51L2929.56 3217.52L2929.58 3217.53L2938.98 3202.18ZM2804.21 3053.57L2788.06 3061.51L2788.09 3061.56L2788.11 3061.62L2804.21 3053.57ZM2805.28 2614.11L2821.36 2622.2L2821.37 2622.18L2821.38 2622.16L2805.28 2614.11ZM2940.58 2464.96L2949.95 2480.33L2949.96 2480.32L2949.97 2480.32L2940.58 2464.96ZM3324.63 2447.92L3316.85 2464.15L3316.92 2464.18L3316.99 2464.22L3324.63 2447.92ZM3447.68 2550.72L3432.85 2560.93L3432.87 2560.95L3432.89 2560.98L3447.68 2550.72ZM3499.88 2705.2V2723.2H3519.23L3517.83 2703.9L3499.88 2705.2ZM3315.58 2705.2L3297.89 2708.54L3300.66 2723.2H3315.58V2705.2ZM3262.31 2606.65L3249.83 2619.63L3249.92 2619.71L3250 2619.79L3262.31 2606.65ZM3047.11 2598.66L3057.46 2613.39L3057.52 2613.35L3057.57 2613.31L3047.11 2598.66ZM2977.33 2689.22L2960.76 2682.2L2960.73 2682.26L2960.7 2682.33L2977.33 2689.22ZM2977.33 2974.73L2960.66 2981.52L2960.67 2981.54L2960.68 2981.57L2977.33 2974.73ZM3046.05 3066.88L3035.39 3081.39L3035.48 3081.46L3035.58 3081.53L3046.05 3066.88ZM3227.15 3082.86L3234.89 3099.11L3234.95 3099.09L3235 3099.06L3227.15 3082.86ZM3284.15 3035.45L3269.69 3024.73L3269.69 3024.73L3284.15 3035.45ZM3315.58 2960.35V2942.35H3300.72L3297.9 2956.94L3315.58 2960.35ZM3499.88 2960.35L3517.82 2961.78L3519.37 2942.35H3499.88V2960.35ZM3448.74 3114.29L3463.74 3124.25L3463.76 3124.22L3463.78 3124.19L3448.74 3114.29ZM3328.36 3218.69L3336.28 3234.86L3336.32 3234.84L3336.37 3234.82L3328.36 3218.69ZM3149.38 3237.98C3070.39 3237.98 3003.65 3220.66 2948.38 3186.83L2929.58 3217.53C2991.5 3255.43 3065.02 3273.98 3149.38 3273.98V3237.98ZM2948.42 3186.85C2893.13 3152.81 2850.47 3105.83 2820.31 3045.52L2788.11 3061.62C2821.17 3127.72 2868.35 3179.82 2929.54 3217.51L2948.42 3186.85ZM2820.37 3045.62C2790.52 2984.91 2775.34 2914.55 2775.34 2834.11H2739.34C2739.34 2919.14 2755.41 2995.09 2788.06 3061.51L2820.37 3045.62ZM2775.34 2834.11C2775.34 2753.35 2790.86 2682.87 2821.36 2622.2L2789.2 2606.03C2755.78 2672.49 2739.34 2748.67 2739.34 2834.11H2775.34ZM2821.38 2622.16C2851.9 2561.11 2894.74 2514 2949.95 2480.33L2931.21 2449.6C2869.94 2486.95 2822.58 2539.27 2789.18 2606.06L2821.38 2622.16ZM2949.97 2480.32C3005.3 2446.45 3071.19 2429.16 3148.32 2429.16V2393.16C3065.65 2393.16 2993.04 2411.75 2931.18 2449.61L2949.97 2480.32ZM3148.32 2429.16C3212.49 2429.16 3268.53 2441 3316.85 2464.15L3332.41 2431.69C3278.46 2405.84 3216.96 2393.16 3148.32 2393.16V2429.16ZM3316.99 2464.22C3365.75 2487.08 3404.22 2519.32 3432.85 2560.93L3462.51 2540.52C3430.06 2493.35 3386.49 2457.05 3332.28 2431.62L3316.99 2464.22ZM3432.89 2560.98C3461.41 2602.1 3477.87 2650.42 3481.93 2706.5L3517.83 2703.9C3513.36 2642.08 3495.03 2587.42 3462.47 2540.47L3432.89 2560.98ZM3499.88 2687.2H3315.58V2723.2H3499.88V2687.2ZM3333.26 2701.85C3325.13 2658.86 3305.58 2622.53 3274.62 2593.52L3250 2619.79C3275.14 2643.34 3291.11 2672.7 3297.89 2708.54L3333.26 2701.85ZM3274.79 2593.68C3243.05 2563.17 3201.11 2548.7 3150.98 2548.7V2584.7C3193.89 2584.7 3226.17 2596.88 3249.83 2619.63L3274.79 2593.68ZM3150.98 2548.7C3108.11 2548.7 3069.77 2560.36 3036.65 2584.02L3057.57 2613.31C3084.12 2594.35 3115.02 2584.7 3150.98 2584.7V2548.7ZM3036.77 2583.94C3003.73 2607.14 2978.53 2640.23 2960.76 2682.2L2993.91 2696.24C3009.52 2659.37 3030.83 2632.09 3057.46 2613.39L3036.77 2583.94ZM2960.7 2682.33C2943.24 2724.46 2934.83 2774.16 2934.83 2830.91H2970.83C2970.83 2777.58 2978.75 2732.81 2993.96 2696.11L2960.7 2682.33ZM2934.83 2830.91C2934.83 2888.35 2943.24 2938.71 2960.66 2981.52L2994 2967.94C2978.76 2930.49 2970.83 2884.97 2970.83 2830.91H2934.83ZM2960.68 2981.57C2978.05 3023.86 3002.81 3057.45 3035.39 3081.39L3056.71 3052.38C3030.33 3032.99 3009.28 3005.15 2993.98 2967.89L2960.68 2981.57ZM3035.58 3081.53C3068.76 3105.22 3107.48 3116.84 3150.98 3116.84V3080.84C3114.23 3080.84 3082.99 3071.15 3056.51 3052.23L3035.58 3081.53ZM3150.98 3116.84C3181.68 3116.84 3209.77 3111.08 3234.89 3099.11L3219.41 3066.61C3199.79 3075.96 3177.11 3080.84 3150.98 3080.84V3116.84ZM3235 3099.06C3260.38 3086.77 3281.64 3069.07 3298.61 3046.17L3269.69 3024.73C3256.12 3043.03 3239.38 3056.94 3219.31 3066.66L3235 3099.06ZM3298.61 3046.17C3315.74 3023.07 3327.15 2995.43 3333.25 2963.76L3297.9 2956.94C3292.64 2984.22 3283.1 3006.64 3269.69 3024.73L3298.61 3046.17ZM3315.58 2978.35H3499.88V2942.35H3315.58V2978.35ZM3481.94 2958.92C3477.54 3014.04 3461.38 3062.39 3433.71 3104.39L3463.78 3124.19C3495.06 3076.7 3512.99 3022.43 3517.82 2961.78L3481.94 2958.92ZM3433.75 3104.33C3406.14 3145.92 3368.49 3178.67 3320.36 3202.57L3336.37 3234.82C3389.79 3208.29 3432.4 3171.44 3463.74 3124.25L3433.75 3104.33ZM3320.45 3202.53C3272.6 3225.95 3215.75 3237.98 3149.38 3237.98V3273.98C3220.09 3273.98 3282.56 3261.15 3336.28 3234.86L3320.45 3202.53ZM3834 2983.25L3816 2983.29L3816.1 3028.82L3847.16 2995.53L3834 2983.25ZM3833.47 2750.48V2732.48H3815.42L3815.47 2750.52L3833.47 2750.48ZM3864.36 2750.48V2768.48H3872.41L3877.78 2762.48L3864.36 2750.48ZM4158.39 2421.82V2403.82H4150.35L4144.98 2409.82L4158.39 2421.82ZM4383.71 2421.82L4397.11 2433.85L4424.08 2403.82H4383.71V2421.82ZM4022.03 2824.52V2842.52H4030.06L4035.42 2836.54L4022.03 2824.52ZM3982.08 2824.52V2806.52H3974.26L3968.92 2812.24L3982.08 2824.52ZM3658.22 3240H3640.22V3258H3658.22V3240ZM3658.22 2149.09V2131.09H3640.22V2149.09H3658.22ZM3851.04 2149.09H3869.04V2131.09H3851.04V2149.09ZM3851.04 3240V3258H3869.04V3240H3851.04ZM4171.71 3240L4157.07 3250.47L4162.46 3258H4171.71V3240ZM3905.38 2867.66L3892.37 2855.22L3882.06 2866L3890.74 2878.14L3905.38 2867.66ZM4035.35 2731.83L4049.94 2721.29L4037.29 2703.77L4022.34 2719.39L4035.35 2731.83ZM4402.36 3240V3258H4437.56L4416.95 3229.46L4402.36 3240ZM3852 2983.21L3851.47 2750.43L3815.47 2750.52L3816 2983.29L3852 2983.21ZM3833.47 2768.48H3864.36V2732.48H3833.47V2768.48ZM3877.78 2762.48L4171.81 2433.82L4144.98 2409.82L3850.95 2738.47L3877.78 2762.48ZM4158.39 2439.82H4383.71V2403.82H4158.39V2439.82ZM4370.32 2409.79L4008.64 2812.49L4035.42 2836.54L4397.11 2433.85L4370.32 2409.79ZM4022.03 2806.52H3982.08V2842.52H4022.03V2806.52ZM3968.92 2812.24L3820.84 2970.97L3847.16 2995.53L3995.24 2836.8L3968.92 2812.24ZM3676.22 3240V2149.09H3640.22V3240H3676.22ZM3658.22 2167.09H3851.04V2131.09H3658.22V2167.09ZM3833.04 2149.09V3240H3869.04V2149.09H3833.04ZM3851.04 3222H3658.22V3258H3851.04V3222ZM4186.35 3229.53L3920.02 2857.19L3890.74 2878.14L4157.07 3250.47L4186.35 3229.53ZM3918.38 2880.11L4048.35 2744.28L4022.34 2719.39L3892.37 2855.22L3918.38 2880.11ZM4020.76 2742.37L4387.77 3250.54L4416.95 3229.46L4049.94 2721.29L4020.76 2742.37ZM4402.36 3222H4171.71V3258H4402.36V3222Z" fill="#2F5300" mask="url(#path-2-outside-1_1512_3)"/>
</svg>
