<svg width="69" height="46" viewBox="0 0 69 46" fill="none" xmlns="http://www.w3.org/2000/svg">
<g clip-path="url(#clip0_1417_11)">
<path d="M16.9815 23H15.294L18.3665 14.2727H20.3182L23.3949 23H21.7074L19.3764 16.0625H19.3082L16.9815 23ZM17.0369 19.5781H21.6392V20.848H17.0369V19.5781ZM29.1467 16.6719C29.1069 16.2997 28.9393 16.0099 28.6438 15.8026C28.3512 15.5952 27.9705 15.4915 27.5018 15.4915C27.1722 15.4915 26.8896 15.5412 26.6538 15.6406C26.418 15.7401 26.2376 15.875 26.1126 16.0455C25.9876 16.2159 25.9237 16.4105 25.9208 16.6293C25.9208 16.8111 25.962 16.9687 26.0444 17.1023C26.1296 17.2358 26.2447 17.3494 26.3896 17.4432C26.5344 17.5341 26.695 17.6108 26.8711 17.6733C27.0472 17.7358 27.2248 17.7884 27.4038 17.831L28.2219 18.0355C28.5515 18.1122 28.8683 18.2159 29.1722 18.3466C29.479 18.4773 29.7532 18.642 29.9947 18.8409C30.239 19.0398 30.4322 19.2798 30.5742 19.5611C30.7163 19.8423 30.7873 20.1719 30.7873 20.5497C30.7873 21.0611 30.6566 21.5114 30.3952 21.9006C30.1339 22.2869 29.756 22.5895 29.2617 22.8082C28.7702 23.0241 28.1751 23.1321 27.4762 23.1321C26.7972 23.1321 26.2077 23.027 25.7077 22.8168C25.2106 22.6065 24.8214 22.2997 24.5401 21.8963C24.2617 21.4929 24.1112 21.0014 24.0884 20.4219H25.6438C25.6665 20.7259 25.7603 20.9787 25.9251 21.1804C26.0898 21.3821 26.3043 21.5327 26.5685 21.6321C26.8356 21.7315 27.1339 21.7812 27.4634 21.7812C27.8072 21.7812 28.1083 21.7301 28.3668 21.6278C28.6282 21.5227 28.8327 21.3778 28.9805 21.1932C29.1282 21.0057 29.2035 20.7869 29.2063 20.5369C29.2035 20.3097 29.1367 20.1222 29.006 19.9744C28.8754 19.8239 28.6921 19.6989 28.4563 19.5994C28.2234 19.4972 27.9506 19.4062 27.6381 19.3267L26.6452 19.071C25.9265 18.8864 25.3583 18.6065 24.9407 18.2315C24.5259 17.8537 24.3185 17.3523 24.3185 16.7273C24.3185 16.2131 24.4577 15.7628 24.7362 15.3764C25.0174 14.9901 25.3995 14.6903 25.8825 14.4773C26.3654 14.2614 26.9123 14.1534 27.5231 14.1534C28.1424 14.1534 28.685 14.2614 29.1509 14.4773C29.6197 14.6903 29.9876 14.9872 30.2546 15.3679C30.5217 15.7457 30.6594 16.1804 30.668 16.6719H29.1467ZM36.9396 16.6719C36.8999 16.2997 36.7322 16.0099 36.4368 15.8026C36.1442 15.5952 35.7635 15.4915 35.2947 15.4915C34.9652 15.4915 34.6825 15.5412 34.4467 15.6406C34.2109 15.7401 34.0305 15.875 33.9055 16.0455C33.7805 16.2159 33.7166 16.4105 33.7138 16.6293C33.7138 16.8111 33.755 16.9687 33.8374 17.1023C33.9226 17.2358 34.0376 17.3494 34.1825 17.4432C34.3274 17.5341 34.4879 17.6108 34.6641 17.6733C34.8402 17.7358 35.0178 17.7884 35.1967 17.831L36.0149 18.0355C36.3445 18.1122 36.6612 18.2159 36.9652 18.3466C37.272 18.4773 37.5462 18.642 37.7876 18.8409C38.032 19.0398 38.2251 19.2798 38.3672 19.5611C38.5092 19.8423 38.5803 20.1719 38.5803 20.5497C38.5803 21.0611 38.4496 21.5114 38.1882 21.9006C37.9268 22.2869 37.549 22.5895 37.0547 22.8082C36.5632 23.0241 35.968 23.1321 35.2692 23.1321C34.5902 23.1321 34.0007 23.027 33.5007 22.8168C33.0036 22.6065 32.6143 22.2997 32.3331 21.8963C32.0547 21.4929 31.9041 21.0014 31.8814 20.4219H33.4368C33.4595 20.7259 33.5533 20.9787 33.718 21.1804C33.8828 21.3821 34.0973 21.5327 34.3615 21.6321C34.6286 21.7315 34.9268 21.7812 35.2564 21.7812C35.6001 21.7812 35.9013 21.7301 36.1598 21.6278C36.4212 21.5227 36.6257 21.3778 36.7734 21.1932C36.9212 21.0057 36.9964 20.7869 36.9993 20.5369C36.9964 20.3097 36.9297 20.1222 36.799 19.9744C36.6683 19.8239 36.4851 19.6989 36.2493 19.5994C36.0163 19.4972 35.7436 19.4062 35.4311 19.3267L34.4382 19.071C33.7195 18.8864 33.1513 18.6065 32.7337 18.2315C32.3189 17.8537 32.1115 17.3523 32.1115 16.7273C32.1115 16.2131 32.2507 15.7628 32.5291 15.3764C32.8104 14.9901 33.1925 14.6903 33.6754 14.4773C34.1584 14.2614 34.7053 14.1534 35.3161 14.1534C35.9354 14.1534 36.478 14.2614 36.9439 14.4773C37.4126 14.6903 37.7805 14.9872 38.0476 15.3679C38.3146 15.7457 38.4524 16.1804 38.4609 16.6719H36.9396ZM41.5707 14.2727V23H39.9897V14.2727H41.5707ZM48.0256 16.6719C47.9858 16.2997 47.8182 16.0099 47.5227 15.8026C47.2301 15.5952 46.8494 15.4915 46.3807 15.4915C46.0511 15.4915 45.7685 15.5412 45.5327 15.6406C45.2969 15.7401 45.1165 15.875 44.9915 16.0455C44.8665 16.2159 44.8026 16.4105 44.7997 16.6293C44.7997 16.8111 44.8409 16.9687 44.9233 17.1023C45.0085 17.2358 45.1236 17.3494 45.2685 17.4432C45.4134 17.5341 45.5739 17.6108 45.75 17.6733C45.9261 17.7358 46.1037 17.7884 46.2827 17.831L47.1009 18.0355C47.4304 18.1122 47.7472 18.2159 48.0511 18.3466C48.358 18.4773 48.6321 18.642 48.8736 18.8409C49.1179 19.0398 49.3111 19.2798 49.4531 19.5611C49.5952 19.8423 49.6662 20.1719 49.6662 20.5497C49.6662 21.0611 49.5355 21.5114 49.2741 21.9006C49.0128 22.2869 48.6349 22.5895 48.1406 22.8082C47.6491 23.0241 47.054 23.1321 46.3551 23.1321C45.6761 23.1321 45.0866 23.027 44.5866 22.8168C44.0895 22.6065 43.7003 22.2997 43.419 21.8963C43.1406 21.4929 42.9901 21.0014 42.9673 20.4219H44.5227C44.5455 20.7259 44.6392 20.9787 44.804 21.1804C44.9688 21.3821 45.1832 21.5327 45.4474 21.6321C45.7145 21.7315 46.0128 21.7812 46.3423 21.7812C46.6861 21.7812 46.9872 21.7301 47.2457 21.6278C47.5071 21.5227 47.7116 21.3778 47.8594 21.1932C48.0071 21.0057 48.0824 20.7869 48.0852 20.5369C48.0824 20.3097 48.0156 20.1222 47.8849 19.9744C47.7543 19.8239 47.571 19.6989 47.3352 19.5994C47.1023 19.4972 46.8295 19.4062 46.517 19.3267L45.5241 19.071C44.8054 18.8864 44.2372 18.6065 43.8196 18.2315C43.4048 17.8537 43.1974 17.3523 43.1974 16.7273C43.1974 16.2131 43.3366 15.7628 43.6151 15.3764C43.8963 14.9901 44.2784 14.6903 44.7614 14.4773C45.2443 14.2614 45.7912 14.1534 46.402 14.1534C47.0213 14.1534 47.5639 14.2614 48.0298 14.4773C48.4986 14.6903 48.8665 14.9872 49.1335 15.3679C49.4006 15.7457 49.5384 16.1804 49.5469 16.6719H48.0256ZM50.6921 15.598V14.2727H57.6552V15.598H54.9577V23H53.3896V15.598H50.6921Z" fill="white"/>
<path d="M59.4695 23.0938C59.2109 23.0938 58.9893 23.0028 58.8047 22.821C58.62 22.6392 58.5291 22.4176 58.532 22.1562C58.5291 21.9006 58.62 21.6818 58.8047 21.5C58.9893 21.3182 59.2109 21.2273 59.4695 21.2273C59.7195 21.2273 59.9368 21.3182 60.1214 21.5C60.3089 21.6818 60.4041 21.9006 60.407 22.1562C60.4041 22.3295 60.3587 22.4872 60.2706 22.6293C60.1854 22.7713 60.0717 22.8849 59.9297 22.9702C59.7905 23.0526 59.6371 23.0938 59.4695 23.0938Z" fill="#274600"/>
</g>
<defs>
<clipPath id="clip0_1417_11">
<rect width="69" height="46" fill="white"/>
</clipPath>
</defs>
</svg>
