<svg width="69" height="46" viewBox="0 0 69 46" fill="none" xmlns="http://www.w3.org/2000/svg">
<g clip-path="url(#clip0_1417_11)">
<path d="M15.8608 23V14.2727H17.4418V21.6747H21.2855V23H15.8608ZM30.1161 18.6364C30.1161 19.5767 29.94 20.3821 29.5877 21.0526C29.2383 21.7202 28.761 22.2315 28.1559 22.5866C27.5536 22.9418 26.8704 23.1193 26.1062 23.1193C25.342 23.1193 24.6573 22.9418 24.0522 22.5866C23.4499 22.2287 22.9727 21.7159 22.6204 21.0483C22.271 20.3778 22.0962 19.5739 22.0962 18.6364C22.0962 17.696 22.271 16.892 22.6204 16.2244C22.9727 15.554 23.4499 15.0412 24.0522 14.6861C24.6573 14.331 25.342 14.1534 26.1062 14.1534C26.8704 14.1534 27.5536 14.331 28.1559 14.6861C28.761 15.0412 29.2383 15.554 29.5877 16.2244C29.94 16.892 30.1161 17.696 30.1161 18.6364ZM28.5266 18.6364C28.5266 17.9744 28.4229 17.4162 28.2156 16.9616C28.011 16.5043 27.7269 16.1591 27.3633 15.9261C26.9996 15.6903 26.5806 15.5724 26.1062 15.5724C25.6317 15.5724 25.2127 15.6903 24.8491 15.9261C24.4854 16.1591 24.1999 16.5043 23.9925 16.9616C23.788 17.4162 23.6857 17.9744 23.6857 18.6364C23.6857 19.2983 23.788 19.858 23.9925 20.3153C24.1999 20.7699 24.4854 21.1151 24.8491 21.3509C25.2127 21.5838 25.6317 21.7003 26.1062 21.7003C26.5806 21.7003 26.9996 21.5838 27.3633 21.3509C27.7269 21.1151 28.011 20.7699 28.2156 20.3153C28.4229 19.858 28.5266 19.2983 28.5266 18.6364ZM39.081 17.2173H37.4872C37.4418 16.956 37.358 16.7244 37.2358 16.5227C37.1136 16.3182 36.9616 16.1449 36.7798 16.0028C36.598 15.8608 36.3906 15.7543 36.1577 15.6832C35.9276 15.6094 35.679 15.5724 35.4119 15.5724C34.9375 15.5724 34.517 15.6918 34.1506 15.9304C33.7841 16.1662 33.4972 16.5128 33.2898 16.9702C33.0824 17.4247 32.9787 17.9801 32.9787 18.6364C32.9787 19.304 33.0824 19.8665 33.2898 20.3239C33.5 20.7784 33.7869 21.1222 34.1506 21.3551C34.517 21.5852 34.9361 21.7003 35.4077 21.7003C35.669 21.7003 35.9134 21.6662 36.1406 21.598C36.3707 21.527 36.5767 21.4233 36.7585 21.2869C36.9432 21.1506 37.098 20.983 37.223 20.7841C37.3509 20.5852 37.4389 20.358 37.4872 20.1023L39.081 20.1108C39.0213 20.5256 38.892 20.9148 38.6932 21.2784C38.4972 21.642 38.2401 21.9631 37.9219 22.2415C37.6037 22.517 37.2315 22.733 36.8054 22.8892C36.3793 23.0426 35.9063 23.1193 35.3864 23.1193C34.6193 23.1193 33.9347 22.9418 33.3324 22.5866C32.7301 22.2315 32.2557 21.7188 31.9091 21.0483C31.5625 20.3778 31.3892 19.5739 31.3892 18.6364C31.3892 17.696 31.5639 16.892 31.9134 16.2244C32.2628 15.554 32.7386 15.0412 33.3409 14.6861C33.9432 14.331 34.625 14.1534 35.3864 14.1534C35.8722 14.1534 36.3239 14.2216 36.7415 14.358C37.1591 14.4943 37.5313 14.6946 37.858 14.9588C38.1847 15.2202 38.4531 15.5412 38.6634 15.9219C38.8764 16.2997 39.0156 16.7315 39.081 17.2173ZM41.544 23H39.8565L42.929 14.2727H44.8807L47.9574 23H46.2699L43.9389 16.0625H43.8707L41.544 23ZM41.5994 19.5781H46.2017V20.848H41.5994V19.5781ZM47.6687 15.598V14.2727H54.6317V15.598H51.9343V23H50.3661V15.598H47.6687ZM55.9741 23V14.2727H61.6502V15.598H57.555V17.9673H61.3562V19.2926H57.555V21.6747H61.6843V23H55.9741Z" fill="white"/>
<path d="M64.1452 23.0938C63.8867 23.0938 63.6651 23.0028 63.4805 22.821C63.2958 22.6392 63.2049 22.4176 63.2077 22.1562C63.2049 21.9006 63.2958 21.6818 63.4805 21.5C63.6651 21.3182 63.8867 21.2273 64.1452 21.2273C64.3952 21.2273 64.6126 21.3182 64.7972 21.5C64.9847 21.6818 65.0799 21.9006 65.0827 22.1562C65.0799 22.3295 65.0344 22.4872 64.9464 22.6293C64.8612 22.7713 64.7475 22.8849 64.6055 22.9702C64.4663 23.0526 64.3129 23.0938 64.1452 23.0938Z" fill="#274600"/>
</g>
<defs>
<clipPath id="clip0_1417_11">
<rect width="69" height="46" fill="white"/>
</clipPath>
</defs>
</svg>
