<svg width="69" height="46" viewBox="0 0 69 46" fill="none" xmlns="http://www.w3.org/2000/svg">
<path d="M23.331 17.2173H21.7372C21.6918 16.956 21.608 16.7244 21.4858 16.5227C21.3636 16.3182 21.2116 16.1449 21.0298 16.0028C20.848 15.8608 20.6406 15.7543 20.4077 15.6832C20.1776 15.6094 19.929 15.5724 19.6619 15.5724C19.1875 15.5724 18.767 15.6918 18.4006 15.9304C18.0341 16.1662 17.7472 16.5128 17.5398 16.9702C17.3324 17.4247 17.2287 17.9801 17.2287 18.6364C17.2287 19.304 17.3324 19.8665 17.5398 20.3239C17.75 20.7784 18.0369 21.1222 18.4006 21.3551C18.767 21.5852 19.1861 21.7003 19.6577 21.7003C19.919 21.7003 20.1634 21.6662 20.3906 21.598C20.6207 21.527 20.8267 21.4233 21.0085 21.2869C21.1932 21.1506 21.348 20.983 21.473 20.7841C21.6009 20.5852 21.6889 20.358 21.7372 20.1023L23.331 20.1108C23.2713 20.5256 23.142 20.9148 22.9432 21.2784C22.7472 21.642 22.4901 21.9631 22.1719 22.2415C21.8537 22.517 21.4815 22.733 21.0554 22.8892C20.6293 23.0426 20.1563 23.1193 19.6364 23.1193C18.8693 23.1193 18.1847 22.9418 17.5824 22.5866C16.9801 22.2315 16.5057 21.7188 16.1591 21.0483C15.8125 20.3778 15.6392 19.5739 15.6392 18.6364C15.6392 17.696 15.8139 16.892 16.1634 16.2244C16.5128 15.554 16.9886 15.0412 17.5909 14.6861C18.1932 14.331 18.875 14.1534 19.6364 14.1534C20.1222 14.1534 20.5739 14.2216 20.9915 14.358C21.4091 14.4943 21.7813 14.6946 22.108 14.9588C22.4347 15.2202 22.7031 15.5412 22.9134 15.9219C23.1264 16.2997 23.2656 16.7315 23.331 17.2173ZM24.7788 23V14.2727H26.3597V21.6747H30.2035V23H24.7788ZM33.1566 14.2727V23H31.5756V14.2727H33.1566ZM42.3388 17.2173H40.745C40.6996 16.956 40.6158 16.7244 40.4936 16.5227C40.3714 16.3182 40.2195 16.1449 40.0376 16.0028C39.8558 15.8608 39.6484 15.7543 39.4155 15.6832C39.1854 15.6094 38.9368 15.5724 38.6697 15.5724C38.1953 15.5724 37.7749 15.6918 37.4084 15.9304C37.0419 16.1662 36.755 16.5128 36.5476 16.9702C36.3402 17.4247 36.2365 17.9801 36.2365 18.6364C36.2365 19.304 36.3402 19.8665 36.5476 20.3239C36.7578 20.7784 37.0447 21.1222 37.4084 21.3551C37.7749 21.5852 38.1939 21.7003 38.6655 21.7003C38.9268 21.7003 39.1712 21.6662 39.3984 21.598C39.6286 21.527 39.8345 21.4233 40.0163 21.2869C40.201 21.1506 40.3558 20.983 40.4808 20.7841C40.6087 20.5852 40.6967 20.358 40.745 20.1023L42.3388 20.1108C42.2791 20.5256 42.1499 20.9148 41.951 21.2784C41.755 21.642 41.4979 21.9631 41.1797 22.2415C40.8615 22.517 40.4893 22.733 40.0632 22.8892C39.6371 23.0426 39.1641 23.1193 38.6442 23.1193C37.8771 23.1193 37.1925 22.9418 36.5902 22.5866C35.9879 22.2315 35.5135 21.7188 35.1669 21.0483C34.8203 20.3778 34.647 19.5739 34.647 18.6364C34.647 17.696 34.8217 16.892 35.1712 16.2244C35.5206 15.554 35.9964 15.0412 36.5987 14.6861C37.201 14.331 37.8828 14.1534 38.6442 14.1534C39.13 14.1534 39.5817 14.2216 39.9993 14.358C40.4169 14.4943 40.7891 14.6946 41.1158 14.9588C41.4425 15.2202 41.7109 15.5412 41.9212 15.9219C42.1342 16.2997 42.2734 16.7315 42.3388 17.2173ZM43.7866 23V14.2727H45.3675V18.2827H45.4741L48.8789 14.2727H50.8093L47.4343 18.1889L50.8391 23H48.9386L46.3349 19.2585L45.3675 20.4006V23H43.7866Z" fill="white"/>
<path d="M52.7898 23.0938C52.5313 23.0938 52.3097 23.0028 52.125 22.821C51.9403 22.6392 51.8494 22.4176 51.8523 22.1562C51.8494 21.9006 51.9403 21.6818 52.125 21.5C52.3097 21.3182 52.5313 21.2273 52.7898 21.2273C53.0398 21.2273 53.2571 21.3182 53.4418 21.5C53.6293 21.6818 53.7244 21.9006 53.7273 22.1562C53.7244 22.3295 53.679 22.4872 53.5909 22.6293C53.5057 22.7713 53.392 22.8849 53.25 22.9702C53.1108 23.0526 52.9574 23.0938 52.7898 23.0938Z" fill="#274600"/>
</svg>
